HIERARCHY
ROOT cube_med
{
	OFFSET 0.000000 0.000000 0.000000
	CHANNELS 6 Xposition Yposition Zposition Yrotation Xrotation Zrotation
	End Site
	{
		OFFSET 0.000000 0.000000 0.000000
	}
}
MOTION
Frames: 198
Frame Time: 0.008333334
-2.039014 2.357079 3.490558 -166.111300 11.267170 -9.985413 
-2.034696 2.350698 3.490016 -166.141400 10.699060 -10.615690 
-2.030679 2.344780 3.491081 -166.076900 10.124800 -11.327580 
-2.028482 2.339269 3.493115 -165.849400 9.660666 -12.108830 
-2.025477 2.333957 3.494945 -165.627500 9.114609 -12.916080 
-2.024113 2.329225 3.496438 -165.248300 8.897480 -13.857120 
-2.022738 2.325078 3.498157 -165.027700 8.531780 -14.700260 
-2.021415 2.321672 3.500640 -164.698000 8.210323 -15.430910 
-2.018458 2.318300 3.502869 -164.522500 8.136219 -16.063840 
-2.014628 2.315624 3.506652 -164.253200 7.943242 -16.494540 
-2.009640 2.313812 3.511025 -164.011600 7.492163 -16.744960 
-2.003838 2.311656 3.515021 -163.900000 7.171857 -16.927800 
-1.997980 2.309391 3.519407 -163.670000 7.074790 -16.987210 
-1.992105 2.308142 3.524196 -163.550500 6.981490 -17.023220 
-1.986104 2.307679 3.529911 -163.276700 6.955281 -16.927860 
-1.979563 2.307904 3.535801 -162.992400 6.880778 -16.864870 
-1.972399 2.307965 3.542152 -162.612700 6.697961 -16.670100 
-1.964905 2.309933 3.546277 -162.280400 6.895186 -16.428990 
-1.956142 2.313285 3.548556 -161.978700 6.927388 -15.920010 
-1.945863 2.319125 3.548320 -161.522000 7.100269 -15.283080 
-1.934220 2.326178 3.546552 -161.040500 7.453938 -14.394380 
-1.923260 2.334011 3.542356 -160.632200 8.063146 -13.421450 
-1.911396 2.341250 3.535402 -160.342000 8.853225 -12.195560 
-1.899050 2.348291 3.529022 -159.912000 9.374872 -10.941040 
-1.882262 2.357099 3.523576 -159.465400 9.874858 -9.479767 
-1.863117 2.366684 3.519570 -159.023200 9.860392 -7.792053 
-1.841261 2.377687 3.515043 -158.752800 9.887385 -5.865692 
-1.815789 2.389461 3.509856 -158.419400 9.812634 -3.653839 
-1.791160 2.403459 3.505029 -158.271200 9.646297 -1.435852 
-1.771216 2.419313 3.501905 -157.902600 9.328752 0.345437 
-1.759609 2.438552 3.502532 -157.646500 8.910288 1.479850 
-1.751532 2.460352 3.506690 -157.548400 8.491622 2.013616 
-1.747724 2.485153 3.515668 -157.692500 7.527960 1.920120 
-1.743686 2.512927 3.527139 -158.090700 6.456660 1.577516 
-1.738687 2.543319 3.539515 -158.516300 5.412970 1.354399 
-1.735241 2.575896 3.554343 -158.996200 4.135839 0.835779 
-1.732779 2.608963 3.570189 -159.269500 2.915780 0.353261 
-1.733227 2.641883 3.585092 -159.858900 1.791168 -0.419952 
-1.735802 2.674119 3.598810 -160.397100 0.652241 -1.470062 
-1.736598 2.703967 3.610453 -161.000200 -0.186462 -2.567719 
-1.736931 2.730373 3.619709 -161.812400 -1.196411 -3.385101 
-1.733035 2.754898 3.626874 -162.400000 -1.997986 -4.131775 
-1.726803 2.777215 3.631811 -163.052700 -2.845947 -4.529175 
-1.718751 2.796082 3.634300 -163.498800 -3.824341 -4.867065 
-1.708658 2.812443 3.635154 -163.727000 -4.804901 -5.381592 
-1.697491 2.826164 3.633709 -163.945200 -5.585938 -5.486206 
-1.684403 2.837817 3.629806 -164.027200 -6.505829 -5.558258 
-1.670889 2.846306 3.622755 -164.135800 -7.192505 -5.765594 
-1.658011 2.854465 3.612104 -164.239700 -7.669006 -5.887451 
-1.644601 2.859831 3.597865 -164.263800 -7.764404 -6.016541 
-1.630448 2.863865 3.580062 -164.221100 -7.737183 -6.156097 
-1.615283 2.867298 3.560974 -164.156500 -7.809113 -5.930695 
-1.596062 2.869632 3.539542 -164.038800 -7.796234 -5.575867 
-1.573205 2.871424 3.515440 -164.274900 -7.560425 -4.863251 
-1.545704 2.872729 3.488904 -164.522200 -7.445526 -4.004608 
-1.516388 2.872449 3.459505 -165.043300 -7.077667 -2.923340 
-1.488467 2.870899 3.430200 -165.517600 -6.729248 -1.839630 
-1.459436 2.867506 3.399662 -166.063100 -6.192017 -0.967468 
-1.430288 2.862678 3.368376 -166.598100 -5.623474 -0.236328 
-1.402337 2.856660 3.338323 -167.166200 -5.405151 0.649091 
-1.372644 2.847430 3.309882 -167.578400 -5.162598 1.590570 
-1.340571 2.836933 3.279998 -167.882600 -5.081299 2.742189 
-1.308828 2.825950 3.251170 -168.348700 -5.047699 3.935587 
-1.279011 2.815424 3.223030 -168.649700 -4.956085 4.933057 
-1.251737 2.803784 3.195830 -168.980600 -4.979340 5.828763 
-1.227088 2.793313 3.168691 -169.490400 -4.779175 6.596136 
-1.204760 2.782531 3.144123 -169.841200 -4.583130 7.088590 
-1.183736 2.771263 3.119556 -170.310200 -4.538605 7.522316 
-1.164126 2.759738 3.097384 -170.834500 -4.515717 7.794367 
-1.146895 2.745681 3.075483 -171.304200 -4.569824 7.987887 
-1.132286 2.730040 3.053221 -171.765500 -4.533203 8.224053 
-1.118054 2.711660 3.029852 -172.068400 -4.390503 8.580117 
-1.105793 2.690691 3.004381 -172.189500 -4.104767 8.936988 
-1.094027 2.667624 2.977652 -172.374000 -3.859253 9.391534 
-1.080393 2.641758 2.948682 -172.437500 -3.376709 10.268090 
-1.068927 2.613814 2.921917 -172.534300 -2.940491 11.118030 
-1.058845 2.584236 2.895387 -172.695900 -2.404663 12.080780 
-1.050297 2.552456 2.868689 -172.582800 -2.004639 12.850260 
-1.043261 2.518746 2.842674 -172.506900 -1.471130 13.711400 
-1.036364 2.483675 2.817292 -172.524900 -0.710266 14.537850 
-1.030700 2.445142 2.791962 -172.495200 -0.057037 15.229670 
-1.029605 2.411667 2.773236 -172.630600 0.581428 15.400950 
-1.044336 2.402920 2.776487 -173.149800 -0.823364 14.163060 
-1.059324 2.399251 2.782475 -173.475800 -1.748077 12.696230 
-1.072633 2.398430 2.784025 -173.609000 -2.200134 11.255370 
-1.084775 2.396207 2.784060 -173.834600 -2.748962 10.272080 
-1.097172 2.394559 2.783700 -173.947800 -2.953674 9.240799 
-1.111513 2.392084 2.785603 -173.989700 -3.367615 8.149342 
-1.125571 2.390307 2.789677 -174.221400 -3.868988 7.177050 
-1.139359 2.387321 2.794749 -174.432600 -4.332214 6.264307 
-1.150850 2.382679 2.801080 -174.495300 -5.231689 5.413197 
-1.162097 2.377196 2.807750 -174.682600 -5.761658 4.675925 
-1.171680 2.372113 2.815333 -174.753000 -6.391205 4.009200 
-1.181785 2.366537 2.821782 -174.945000 -6.954865 3.410969 
-1.190961 2.360751 2.827978 -174.973300 -7.528351 2.653258 
-1.200313 2.356023 2.833126 -175.239300 -7.877228 1.922864 
-1.208540 2.353115 2.837772 -175.522800 -8.200500 1.286010 
-1.213794 2.350038 2.841458 -175.719900 -8.305695 0.936571 
-1.216938 2.347642 2.844636 -175.851800 -8.499176 0.389221 
-1.219199 2.346120 2.845918 -176.172400 -8.372589 0.182463 
-1.221805 2.345476 2.847101 -176.413700 -8.422577 0.029842 
-1.224422 2.345389 2.848082 -176.566400 -8.313324 -0.227631 
-1.227596 2.345278 2.849568 -176.769800 -8.143127 -0.611267 
-1.229889 2.346097 2.852770 -177.099900 -7.988800 -0.796051 
-1.230718 2.345160 2.857457 -177.404400 -7.905060 -0.814026 
-1.230392 2.344554 2.863796 -177.856800 -7.953430 -0.646729 
-1.230093 2.344246 2.871835 -178.486300 -8.167267 -0.562714 
-1.230561 2.343765 2.880919 -179.160800 -8.360962 -0.585541 
-1.232831 2.343734 2.891749 -179.758300 -8.655945 -0.866882 
-1.238991 2.343688 2.905276 179.477900 -9.180786 -1.376038 
-1.247372 2.342250 2.922420 178.978500 -10.182250 -2.082306 
-1.255993 2.342670 2.940183 178.689000 -11.375820 -2.847473 
-1.264880 2.341963 2.958526 178.385800 -12.485570 -3.643097 
-1.273923 2.341965 2.975050 178.065500 -13.586430 -4.302734 
-1.282302 2.342460 2.989646 178.137100 -14.581270 -5.048004 
-1.289868 2.344074 3.000546 178.203100 -15.576510 -5.784058 
-1.297258 2.348318 3.007399 178.559900 -16.239290 -6.411804 
-1.304999 2.353234 3.012178 178.662500 -16.297270 -6.878998 
-1.312203 2.358588 3.015555 178.873400 -16.641390 -7.347351 
-1.318090 2.364579 3.015880 179.118300 -16.789890 -7.593353 
-1.323551 2.369854 3.016516 179.341700 -17.043330 -7.882111 
-1.329342 2.376302 3.015167 179.611100 -17.234100 -8.035431 
-1.336482 2.383119 3.011737 -179.658900 -17.515050 -8.155334 
-1.345336 2.390239 3.004918 -178.860200 -17.752620 -8.323456 
-1.357554 2.397426 2.994214 -178.291400 -17.786470 -8.668335 
-1.370728 2.404223 2.980802 -177.698600 -17.746800 -8.841278 
-1.386591 2.411494 2.964968 -177.753600 -17.442930 -9.119690 
-1.404848 2.417782 2.950681 -178.334600 -17.315950 -9.498199 
-1.429205 2.425172 2.937010 -179.401800 -17.262970 -10.173430 
-1.455954 2.433300 2.922630 179.006400 -17.073360 -10.725400 
-1.483579 2.441606 2.908937 177.348400 -17.279170 -11.388950 
-1.511327 2.449593 2.897706 175.572400 -17.377080 -12.007840 
-1.538495 2.456186 2.888740 173.681200 -17.915680 -12.701690 
-1.563795 2.461687 2.885005 171.960200 -18.630160 -13.055020 
-1.592034 2.467098 2.881739 169.854200 -19.389220 -13.651030 
-1.621102 2.470971 2.876988 167.605600 -20.339170 -13.935580 
-1.654092 2.475651 2.871562 165.372100 -21.507780 -14.606020 
-1.688875 2.479730 2.865357 162.861300 -22.585330 -15.327450 
-1.723517 2.482176 2.860420 160.292100 -23.905300 -15.987610 
-1.758711 2.484087 2.855483 157.538800 -25.188930 -16.580540 
-1.793689 2.485272 2.851803 154.821300 -26.896580 -17.022670 
-1.828495 2.486268 2.847591 151.746900 -28.679870 -17.396150 
-1.861026 2.489318 2.844922 148.218200 -30.420930 -17.370240 
-1.890421 2.494764 2.843649 144.676700 -32.234500 -17.021000 
-1.917086 2.503013 2.844218 140.737800 -34.075960 -16.030550 
-1.939643 2.512879 2.846526 136.522700 -35.906620 -14.430210 
-1.956857 2.524215 2.853075 131.775000 -37.519070 -12.198460 
-1.971844 2.535006 2.863764 126.518700 -39.243840 -9.239685 
-1.985897 2.544738 2.878230 120.382900 -40.707760 -5.473022 
-1.999255 2.552822 2.895862 113.699500 -42.157200 -0.781189 
-2.012908 2.559208 2.914436 106.659100 -43.017400 4.270016 
-2.027040 2.563816 2.933342 99.690190 -43.425450 9.382549 
-2.039635 2.569206 2.951833 93.074330 -43.404790 14.304250 
-2.050000 2.575485 2.968750 87.203930 -42.927060 18.753250 
-2.056664 2.583160 2.983875 82.152570 -42.059300 22.538280 
-2.061221 2.592029 2.997285 77.552530 -40.990880 25.921550 
-2.067628 2.600796 3.008747 72.882250 -39.591520 29.031100 
-2.077074 2.606903 3.018883 67.990090 -38.188390 32.334350 
-2.088698 2.610807 3.026091 62.982880 -36.514100 35.468630 
-2.100031 2.611387 3.032731 58.093810 -34.310270 38.594540 
-2.111725 2.611091 3.037688 53.295790 -31.995480 41.638080 
-2.122083 2.609769 3.043197 48.918420 -29.401430 44.273740 
-2.132579 2.609156 3.049647 44.720700 -26.730530 46.915430 
-2.140334 2.609345 3.056498 41.218320 -23.847440 48.936510 
-2.147285 2.609620 3.063839 37.985980 -20.991550 50.736140 
-2.153026 2.609951 3.072902 35.156650 -18.097500 52.229360 
-2.158602 2.608792 3.081203 32.426700 -15.248960 53.499080 
-2.164774 2.606993 3.089371 29.929530 -12.566860 54.655200 
-2.171425 2.602631 3.095759 27.409780 -9.840973 55.803070 
-2.179244 2.598165 3.102639 25.072020 -7.123779 56.805400 
-2.188376 2.591488 3.106244 22.654170 -4.303314 57.958420 
-2.198210 2.582429 3.110453 20.348010 -1.518463 58.789510 
-2.207203 2.572871 3.113969 18.199870 1.098681 59.757040 
-2.215975 2.563133 3.117533 16.152550 3.801492 60.571460 
-2.224219 2.553936 3.120845 14.194790 6.484853 61.120930 
-2.232516 2.545270 3.125823 12.283140 9.078940 61.692880 
-2.239759 2.536093 3.132883 10.510160 11.793110 62.172140 
-2.246413 2.529330 3.140594 8.936400 14.208260 62.377190 
-2.252678 2.521963 3.149575 7.703607 16.755200 62.591380 
-2.257991 2.515482 3.158433 6.259480 19.033190 62.554670 
-2.263637 2.508137 3.166759 4.758178 21.295070 62.599500 
-2.270293 2.499168 3.174870 3.654243 23.402790 62.665060 
-2.276943 2.490423 3.183567 2.453686 25.394310 62.801570 
-2.283591 2.481203 3.192924 1.317653 27.120090 62.695020 
-2.290927 2.470095 3.204781 0.537562 28.710200 62.883240 
-2.297396 2.458990 3.220428 0.230198 29.829490 63.055400 
-2.303847 2.447220 3.238964 0.142130 30.703990 63.203600 
-2.310178 2.434694 3.261434 0.496755 31.423700 63.551610 
-2.316437 2.421201 3.285401 0.997351 32.003750 63.930350 
-2.321400 2.408305 3.310113 1.535150 32.704590 64.277020 
-2.325806 2.396580 3.333200 1.791453 33.272760 64.526050 
-2.327968 2.385521 3.353605 2.083014 34.034790 64.796200 
-2.328471 2.380328 3.369973 1.712465 34.816740 64.546780 
-2.327244 2.376253 3.387446 1.680998 35.345200 64.283420 
-2.324440 2.373291 3.403548 1.558672 35.963630 64.182400 
-2.321831 2.370997 3.421265 1.570076 36.318940 64.013470 
-2.318948 2.369294 3.437670 1.862418 36.558190 63.936940 
-2.319147 2.367510 3.445779 2.233296 36.529100 64.090000 
